<svg id="Calque_1" data-name="Calque 1" xmlns="http://www.w3.org/2000/svg" viewBox="0 0 119.24 27.17"><defs><style>.cls-1{fill:#0b5897;}.cls-2,.cls-3{fill:#fff;}.cls-3{font-size:3.63px;font-family:GoboldUplow, Gobold Uplow;}.cls-4{letter-spacing:-0.03em;}.cls-5{fill:#37b34a;}</style></defs><title>HORIZ</title><path class="cls-1" d="M20.44,34.59V26.66q0-7.15,0-14.31A5.53,5.53,0,0,1,21.5,9a1.42,1.42,0,0,1,1-.6c.6,0,1.2,0,1.81,0h2.42l0,.7c0,.17,0,.33,0,.49V11.8c0,1.34,0,2.69,0,4s.35,2.92,1.93,2.92h0a4.2,4.2,0,0,0,1.35-.18c.48-.17,1.13-.6,1.13-2.28,0-1.5,0-3,0-4.5V8.48h6.19v26.1H31.22s0-5.2,0-6.6c0-2.32-.81-2.79-1.59-2.94a3.53,3.53,0,0,0-.56-.05,4,4,0,0,0-1.2.2c-.89.29-1.09,1.58-1.09,2.62,0,1.22,0,2.45,0,3.67v3.11Z" transform="translate(0.12 -7.92)"/><path class="cls-2" d="M24.36,8.92h1.93c0,.25,0,.47,0,.69,0,2.08,0,4.16,0,6.23s.87,3.42,2.43,3.42h0a4.5,4.5,0,0,0,1.5-.21c1-.35,1.47-1.27,1.47-2.74,0-2.14,0-4.28,0-6.42V9h5.19v25.1H31.72c0-2.07,0-4.09,0-6.1s-.61-3.16-2-3.43a3.49,3.49,0,0,0-.65-.06,4.39,4.39,0,0,0-1.35.22c-1,.32-1.43,1.42-1.44,3.09s0,3.52,0,5.28v1H20.94V31.77q0-9.7,0-19.42a5,5,0,0,1,1-3,.93.93,0,0,1,.65-.4c.6,0,1.2,0,1.81,0m0-1c-.62,0-1.23,0-1.84,0a1.93,1.93,0,0,0-1.43.81,6,6,0,0,0-1.17,3.6q0,7.11,0,14.21v8.53h7.34V31.46c0-1.22,0-2.43,0-3.65,0-.57.08-1.93.75-2.15a3.53,3.53,0,0,1,1-.17,2.32,2.32,0,0,1,.46,0c.41.08,1.19.23,1.19,2.45,0,1.4,0,2.79,0,4.21v2.89h7.19V8H30.72v3.84c0,1.49,0,3,0,4.48s-.56,1.72-.8,1.81a3.69,3.69,0,0,1-1.17.15c-.36,0-1.43,0-1.44-2.42,0-1.35,0-2.71,0-4.06,0-.72,0-1.45,0-2.17,0-.17,0-.35,0-.53l0-.21-.05-.95H24.36Z" transform="translate(0.12 -7.92)"/><text class="cls-3" transform="translate(36.26 23.2) rotate(-90) scale(1.71 1)">B<tspan class="cls-4" x="1.85" y="0">Y</tspan><tspan x="3.64" y="0" xml:space="preserve"> SNCI</tspan></text><path class="cls-5" d="M.71,34.58,7.76,21.3,1.05,8.48H6.58a.73.73,0,0,1,.67.44L11,16.14v0l2.59,5-2.81,5.4-4.22,8.1Z" transform="translate(0.12 -7.92)"/><path class="cls-2" d="M6.58,9c.11,0,.17,0,.23.17l4,7.76.1.18v0l2.1,4-2.24,4.3h0c0,.07-.07.13-.1.19l-.39.78-4,7.73H1.54C3.81,29.8,6.06,25.56,8.33,21.3Q5.1,15.17,1.88,9h4.7m0-1H.23L1,9.44l2.67,5.09L7.2,21.29.66,33.61l-.78,1.47h7l.28-.54,4-7.74,0,0,.48-.92,2.24-4.29.24-.47-.24-.46-2.1-4-.77-1.46v0L7.7,8.69A1.22,1.22,0,0,0,6.58,8Z" transform="translate(0.12 -7.92)"/><path class="cls-5" d="M11.62,14.64l2.9-5.72a.75.75,0,0,1,.65-.45h5L14.32,19.71Z" transform="translate(0.12 -7.92)"/><path class="cls-2" d="M15.17,9h4.18l-5,9.66-2.14-4L15,9.15c0-.1.1-.18.2-.18m0-1h0a1.19,1.19,0,0,0-1.09.72c-.93,1.84-1.86,3.66-2.79,5.49l-.24.47.25.46,2.14,4,.89,1.67.87-1.68,5-9.66L21,8H15.17Z" transform="translate(0.12 -7.92)"/><path class="cls-1" d="M15.34,34.59a.71.71,0,0,1-.65-.43l-2.85-5.61,2.89-5.77,6.18,11.7-.73.08-.2,0Z" transform="translate(0.12 -7.92)"/><path class="cls-2" d="M14.75,23.88l5.38,10.19H15.34c-.09,0-.15,0-.2-.15q-1.37-2.7-2.74-5.38l2.35-4.67m0-2.19-.87,1.74L11.51,28.1l-.23.45.23.45,2.73,5.38a1.2,1.2,0,0,0,1.1.7H20l.23,0,1.45-.17L21,33.6l-.19-.37-5.19-9.82-.91-1.72Z" transform="translate(0.12 -7.92)"/><polygon points="46.1 20.54 45.45 18.35 45.45 20.54 43.02 20.54 43.02 8.01 45.45 8.01 45.45 10.21 46.1 8.01 48.7 8.01 46.64 14.28 48.7 20.54 46.1 20.54"/><path class="cls-2" d="M47.88,16.43,46,22.19,47.88,28H46.35l-1.53-5.13V28H43.39V16.43h1.43v5.13l1.53-5.13h1.53m1.39-1H42.39V29h6.88l-.44-1.31L47,22.19l1.79-5.45.44-1.31Z" transform="translate(0.12 -7.92)"/><path d="M51.27,28.46l-.59-2.3v2.3H48.25V15.93h2.58c.9,0,2.41.39,2.41,2.93v1.73a2.53,2.53,0,0,1-1,2.25l1.69,5.62Zm-.59-7.6h.06s.07,0,.07-.27V18.86a.55.55,0,0,0-.05-.29h-.08Z" transform="translate(0.12 -7.92)"/><path class="cls-2" d="M50.83,16.43c1.28,0,1.91.81,1.91,2.43v1.73a1.94,1.94,0,0,1-1.13,2L53.22,28H51.65l-1.29-5.07-.18,0v5H48.75V16.43h2.08m-.65,4.94h.33a1,1,0,0,0,.41-.05.72.72,0,0,0,.39-.73V18.86c0-.53-.21-.79-.62-.79h-.51v3.3m.65-5.94H47.75V29h6.82l-.39-1.29L52.78,23a3.1,3.1,0,0,0,1-2.43V18.86c0-3.09-2-3.43-2.9-3.43Z" transform="translate(0.12 -7.92)"/><path d="M56,28.65c-1,0-2.56-.38-2.56-2.93v-7c0-2.55,1.61-2.92,2.56-2.92s2.56.37,2.56,2.92v7c0,2.54-1.6,2.92-2.56,2.93ZM55.91,18.4a.56.56,0,0,0,0,.27v7a.69.69,0,0,0,0,.28h.16s0-.06,0-.27v-7c0-.22,0-.27,0-.27h-.16Z" transform="translate(0.12 -7.92)"/><path class="cls-2" d="M56,16.25c1.37,0,2.06.8,2.06,2.42v7c0,1.61-.69,2.42-2.06,2.43s-2.06-.81-2.06-2.43v-7c0-1.62.69-2.42,2.06-2.42M56,26.5q.63,0,.63-.78v-7c0-.52-.21-.78-.62-.78h0c-.42,0-.62.26-.62.78v7c0,.52.2.78.62.78m0-11.25c-.92,0-3.06.33-3.06,3.42v7c0,3.09,2.14,3.43,3.06,3.43s3.06-.34,3.06-3.43v-7c0-3.09-2.14-3.42-3.06-3.42Zm.38,3.33Zm0,7.23Z" transform="translate(0.12 -7.92)"/><polygon points="61.67 20.54 61.27 18.57 61.27 20.54 58.89 20.54 58.89 8.01 61.23 8.01 61.68 10.22 61.68 8.01 64.01 8.01 64.01 20.54 61.67 20.54"/><path class="cls-2" d="M63.39,16.43V28H62l-1.3-6.48V28H59.27V16.43H60.7l1.36,6.69V16.43h1.33m1-1H58.27V29h6.12V15.43Z" transform="translate(0.12 -7.92)"/><rect x="64.35" y="8.01" width="2.43" height="12.53"/><path class="cls-2" d="M66.16,16.43V28H64.73V16.43h1.43m1-1H63.73V29h3.43V15.43Z" transform="translate(0.12 -7.92)"/><polygon points="70.21 20.54 69.56 18.35 69.56 20.54 67.13 20.54 67.13 8.01 69.56 8.01 69.56 10.21 70.21 8.01 72.81 8.01 70.75 14.28 72.81 20.54 70.21 20.54"/><path class="cls-2" d="M72,16.43l-1.9,5.76L72,28H70.46l-1.52-5.13V28H67.51V16.43h1.43v5.13l1.52-5.13H72m1.38-1H66.51V29h6.87L73,27.65l-1.79-5.46L73,16.74l.43-1.31Z" transform="translate(0.12 -7.92)"/><path d="M74.82,28.65c-1,0-2.56-.39-2.56-2.93v-2h2.35a4.92,4.92,0,0,0-.83-.83,3.89,3.89,0,0,1-1.52-3.09V18.67c0-2.55,1.6-2.92,2.56-2.92s2.56.37,2.56,2.92v2H75.31a7.11,7.11,0,0,0,.54.49,3.87,3.87,0,0,1,1.53,3.05v1.46c0,2.55-1.6,2.93-2.56,2.93Zm-.13-2.93a.46.46,0,0,0,0,.27h.16a.61.61,0,0,0,0-.27V24.4a1.11,1.11,0,0,0-.25-.62Zm0-7.32a.56.56,0,0,0,0,.27v1a1.11,1.11,0,0,0,.25.58V18.67a.64.64,0,0,0,0-.28Z" transform="translate(0.12 -7.92)"/><path class="cls-2" d="M74.82,16.25c1.37,0,2.06.8,2.06,2.42v1.55H75.44V18.67c0-.52-.2-.78-.62-.78h0c-.41,0-.62.26-.62.78v1c0,.52.45,1.15,1.34,1.89a3.35,3.35,0,0,1,1.35,2.66v1.46c0,1.62-.69,2.43-2.06,2.43s-2.06-.82-2.06-2.43V24.17h1.43v1.55q0,.78.63.78c.42,0,.62-.26.62-.78V24.4c0-.55-.44-1.2-1.34-1.95a3.4,3.4,0,0,1-1.34-2.7V18.67c0-1.62.68-2.42,2.06-2.42m0-1c-.92,0-3.06.33-3.06,3.42v1.08a4.35,4.35,0,0,0,1.64,3.42H71.76v2.55c0,3.09,2.14,3.42,3.06,3.43s3.06-.34,3.06-3.43V24.26a4.2,4.2,0,0,0-1.28-3h1.28V18.67c0-3.09-2.14-3.42-3.06-3.42Zm.38,3.33Zm-.76,7.23Z" transform="translate(0.12 -7.92)"/><rect x="77.31" y="13.23" width="4.48" height="2.37"/><path class="cls-2" d="M81.16,21.65V23H77.69V21.65h3.47m1-1H76.69V24h5.47V20.65Z" transform="translate(0.12 -7.92)"/><polygon points="84.67 20.54 84.12 18.61 83.56 20.54 81.08 20.54 82.87 14.28 81.08 8.01 83.56 8.01 84.12 9.94 84.67 8.01 87.15 8.01 85.36 14.28 87.15 20.54 84.67 20.54"/><path class="cls-2" d="M86.37,16.43l-1.66,5.76L86.37,28H84.92L84,24.71,83.06,28H81.62l1.65-5.77-1.65-5.76h1.44L84,19.67l.92-3.24h1.45m1.32-1H84.17L84,16l-.17-.61H80.29l.37,1.27,1.57,5.49-1.57,5.49L80.29,29h3.53l.17-.61.18.61h3.52l-.36-1.28-1.58-5.49,1.58-5.49.36-1.27Z" transform="translate(0.12 -7.92)"/><polygon points="92.11 20.54 92.11 15.6 91.86 15.6 91.86 20.54 89.42 20.54 89.42 8.01 91.86 8.01 91.86 12.96 92.11 12.96 92.11 8.01 94.54 8.01 94.54 20.54 92.11 20.54"/><path class="cls-2" d="M93.92,16.43V28H92.49V23H91.23V28H89.8V16.43h1.43v4.94h1.26V16.43h1.43m1-1H88.8V29h6.12V15.43Z" transform="translate(0.12 -7.92)"/><polygon points="94.86 20.54 94.86 8.01 99.58 8.01 99.58 10.65 97.29 10.65 97.29 12.96 99.26 12.96 99.26 15.6 97.29 15.6 97.29 17.9 99.58 17.9 99.58 20.54 94.86 20.54"/><path class="cls-2" d="M99,16.43v1.64H96.67v3.3h2V23h-2v3.3H99V28H95.24V16.43H99m1-1H94.24V29H100V25.32H97.67V24h2V20.37h-2v-1.3H100V15.43Z" transform="translate(0.12 -7.92)"/><polygon points="102.71 20.54 102.43 18.1 101.86 18.1 101.58 20.54 99.13 20.54 99.66 15.91 100.73 8.01 103.57 8.01 104.63 15.89 105.17 20.54 102.71 20.54"/><path class="cls-2" d="M103,16.43l1,7.44.46,4.09H103l-.28-2.45h-1.46L101,28H99.56l.47-4.07,1-7.46h2m-1.54,7.44h1.1l-.55-4.8-.55,4.8m2.41-8.44h-3.71l-.12.86-1,7.46-.47,4.1L98.44,29h3.46l.1-.89,0-.17,0,.17.1.89h3.46l-.12-1.11L105,23.76l-1-7.47-.12-.86Z" transform="translate(0.12 -7.92)"/><polygon points="104.97 20.54 104.97 8.01 107.4 8.01 107.4 17.9 109.69 17.9 109.69 20.54 104.97 20.54"/><path class="cls-2" d="M106.78,16.43v9.89h2.28V28h-3.72V16.43h1.44m1-1h-3.44V29h5.72V25.32h-2.28V15.43Z" transform="translate(0.12 -7.92)"/><polygon points="109.93 20.54 109.93 10.65 108.59 10.65 108.59 8.01 113.71 8.01 113.71 10.65 112.36 10.65 112.36 20.54 109.93 20.54"/><path class="cls-2" d="M113.08,16.43v1.64h-1.34V28h-1.43V18.07H109V16.43h4.11m1-1H108v3.64h1.34V29h3.43V19.07h1.34V15.43Z" transform="translate(0.12 -7.92)"/><polygon points="116.3 20.54 116.3 15.6 116.05 15.6 116.05 20.54 113.62 20.54 113.62 8.01 116.05 8.01 116.05 12.96 116.3 12.96 116.3 8.01 118.74 8.01 118.74 20.54 116.3 20.54"/><path class="cls-2" d="M118.11,16.43V28h-1.43V23h-1.25V28H114V16.43h1.43v4.94h1.25V16.43h1.43m1-1H113V29h6.11V15.43Z" transform="translate(0.12 -7.92)"/></svg>